<svg xmlns="http://www.w3.org/2000/svg" viewBox="0 0 2536.35 569.21"><defs><style>.cls-1{fill:#fff;}</style></defs><g id="Layer_2" data-name="Layer 2"><g id="Layer_1-2" data-name="Layer 1"><path class="cls-1" d="M491.19,64.38a61.19,61.19,0,0,0-20.86-24.59C405.55-5.55,309.79.24,309.79.24h0A272.8,272.8,0,0,0,183,36.45C103.26,82.33,59.57,150.18,56.36,247.94c.14-4.73,14.15-14.38,17.48-17.08,6.62-5.37,13.36-10.68,20.21-15.74a434.16,434.16,0,0,1,46.13-29.46c32.07-17.93,65.82-32.56,99.6-47,6-2.59,12.35-4.64,18.37-7.3,18-6.78,35.22-14.92,52.65-22.91,3.13-1.68,6.25-3.38,9.37-5.06,3.92-2.12,7.88-4.29,10.91-7.55,9.77-10.56,4.64-28.81-8.6-33.13-18-5.87-39.32-4.4-58-3A188,188,0,0,0,205.93,73.8a194.43,194.43,0,0,0-23.07,11.49c-24,13.87-68.49,61.51-74,67.43,7.95-8.72,15-18.3,22.92-27.08C144,112.12,155.89,98.67,170,87c16.76-13.94,35.33-24.45,55.43-32.91C251,43.31,266.17,38,293.9,36.06c22.71-1.59,64.41.6,81.61,18.32,9.44,9.7,13.54,18.53,10.95,31.82-3,15.47-15,27.76-28.18,36.43C328.77,142,296.72,155,264.09,168c-69.62,27.55-140.45,55.26-202,97.59C.26,308-1.13,349.75.29,371.85c6.78,104.75,160.28,97.91,171,72.45C119.14,457,79.88,401.75,79.88,368.44c0-20.53,11.35-56.55,65.87-84.12,69.29-35,147.59-62.63,217.21-96.68C432.13,153.81,487.85,127,493.85,94.07,496,82.37,495.63,74.2,491.19,64.38Z"></path><path class="cls-1" d="M322.4,62.7c-18-5.88-39.33-4.39-58-3.07A188.2,188.2,0,0,0,205.9,73.78a198.61,198.61,0,0,0-23.09,11.49c-23.24,13.44-65.68,58.54-73.34,66.76,7.66-8.53,14.66-17.83,22.32-26.41,12.15-13.53,24.1-27,38.15-38.66C186.69,73,205.29,62.55,225.36,54.07,251,43.29,266.12,38,293.85,36c21.56-1.49,60.12.4,78.76,15.68a178.25,178.25,0,0,0-138.67-38,269.29,269.29,0,0,0-51,22.72C150.79,54.93,124.48,77,104.41,103.2c-29.83,38.72-46.12,86.37-48.06,144.7.15-4.75,14.15-14.35,17.47-17.11,3.62-2.91,7.25-5.77,10.87-8.63,3.12-2.4,6.24-4.75,9.35-7.1a435.71,435.71,0,0,1,46.12-29.42c32.08-17.93,65.84-32.59,99.55-47,6.08-2.61,12.36-4.65,18.39-7.31,17.93-6.79,35.19-14.91,52.66-22.88,3.11-1.68,6.23-3.42,9.34-5.1,3.94-2.1,7.92-4.3,10.93-7.51C340.79,85.27,335.63,67,322.4,62.7Z"></path><path class="cls-1" d="M141.15,504.82A61,61,0,0,0,162,529.41C226.79,574.75,322.54,569,322.54,569h0a272.57,272.57,0,0,0,126.85-36.21C529.08,486.88,572.76,419,576,321.27c-.14,4.73-14.15,14.38-17.48,17.08-6.62,5.36-13.36,10.68-20.21,15.73a436.86,436.86,0,0,1-46.13,29.47c-32.07,17.92-65.83,32.56-99.6,47-6,2.59-12.35,4.64-18.37,7.3-17.95,6.78-35.22,14.91-52.65,22.91-3.13,1.68-6.25,3.38-9.37,5.06-3.92,2.12-7.88,4.29-10.91,7.55-9.77,10.56-4.64,28.81,8.6,33.12,18,5.88,39.32,4.41,58,3a188.26,188.26,0,0,0,58.57-14.12,195.34,195.34,0,0,0,23.08-11.49c24-13.87,68.48-61.52,74-67.44-7.94,8.72-15,18.3-22.91,27.09-12.17,13.52-24.1,27-38.18,38.65-16.76,13.94-35.34,24.45-55.43,32.91-25.59,10.77-40.77,16.08-68.5,18-22.71,1.58-64.41-.61-81.61-18.32-9.44-9.7-13.54-18.53-11-31.82,3-15.48,15-27.76,28.18-36.43,29.51-19.4,61.56-32.4,94.2-45.34,69.62-27.55,140.45-55.26,202-97.6,61.79-42.46,63.18-84.19,61.76-106.28-6.79-104.76-160.28-97.91-171-72.46,52.13-12.72,91.39,42.55,91.39,75.86,0,20.54-11.36,56.55-65.87,84.13C417.3,319.94,339,347.52,269.38,381.57c-69.18,33.83-124.89,60.62-130.89,93.57C136.35,486.84,136.7,495,141.15,504.82Z"></path><path class="cls-1" d="M309.94,506.51c18,5.87,39.32,4.39,58,3.06a187.93,187.93,0,0,0,58.53-14.15,198.61,198.61,0,0,0,23.09-11.49c23.24-13.43,65.68-58.53,73.34-66.75-7.66,8.53-14.66,17.82-22.32,26.4-12.15,13.54-24.11,27-38.15,38.67-16.76,13.94-35.35,24.41-55.42,32.89-25.59,10.78-40.76,16.09-68.49,18-21.56,1.48-60.12-.41-78.76-15.68a178.25,178.25,0,0,0,138.67,38,268.33,268.33,0,0,0,51-22.73c32.13-18.49,58.44-40.55,78.51-66.76,29.83-38.71,46.12-86.36,48.06-144.69-.15,4.75-14.15,14.35-17.47,17.11-3.62,2.91-7.25,5.77-10.88,8.63-3.11,2.4-6.23,4.75-9.34,7.1a435.71,435.71,0,0,1-46.12,29.42c-32.08,17.93-65.84,32.58-99.55,47-6.08,2.6-12.36,4.65-18.39,7.3-17.93,6.8-35.19,14.92-52.66,22.88-3.11,1.69-6.23,3.43-9.35,5.11-3.93,2.1-7.91,4.29-10.93,7.51C291.55,483.93,296.71,502.17,309.94,506.51Z"></path><path class="cls-1" d="M487.58,151.29a21.17,21.17,0,1,1-21.19,21.15A21.18,21.18,0,0,1,487.58,151.29Zm0,38.05a16.88,16.88,0,1,0-16.88-16.86A16.88,16.88,0,0,0,487.57,189.34Z"></path><path class="cls-1" d="M498.27,183.06h-5.91a.24.24,0,0,1-.24-.16c-.45-.93-.91-1.86-1.37-2.79s-.91-1.86-1.37-2.78a6.48,6.48,0,0,0-1.19-1.74,2.93,2.93,0,0,0-1.79-.85c-.61-.06-1.23-.05-1.85-.07H484v8.37h-5.7V160.91h9.15a14.85,14.85,0,0,1,3.11.31,7.66,7.66,0,0,1,2.67,1,4.6,4.6,0,0,1,2,2.7,7.89,7.89,0,0,1,.12,3.55A5,5,0,0,1,492.8,172a7.44,7.44,0,0,1-1.48.64l-.08,0c.22.08.43.15.64.24a4.68,4.68,0,0,1,1.77,1.38,12.16,12.16,0,0,1,1.52,2.46c.51,1.05,1,2.09,1.55,3.14l1.54,3.08A.18.18,0,0,0,498.27,183.06ZM484,170.74h.1c.84,0,1.67,0,2.5,0a4.77,4.77,0,0,0,1.59-.25,2,2,0,0,0,1.32-1.2,3.92,3.92,0,0,0,0-2.74,1.86,1.86,0,0,0-1-1.13,3.87,3.87,0,0,0-1.53-.34c-1,0-1.94,0-2.92,0l-.09,0Z"></path><path class="cls-1" d="M193.32,387.56q-12.39,7.11-25.6,4.22-12.81-2.85-21.74-13.91a45.26,45.26,0,0,1-4.06-6q-7.48-12.9-5.54-26.45a33.85,33.85,0,0,1,12.7-22.22,39.47,39.47,0,0,1,5.11-3.5,34.18,34.18,0,0,1,25.5-4.12,38.71,38.71,0,0,1,22,13.92,43.13,43.13,0,0,1,3.95,5.82q7.41,12.82,5.54,26.38a33.73,33.73,0,0,1-12.74,22.32A40.84,40.84,0,0,1,193.32,387.56ZM163.6,336a11.87,11.87,0,0,0-2.19,1.4A14,14,0,0,0,156,348.13a25,25,0,0,0,3.75,13.64,27.88,27.88,0,0,0,2.78,4.13,19.87,19.87,0,0,0,10.1,7.1,14.27,14.27,0,0,0,11.32-1.7,12.74,12.74,0,0,0,2.27-1.45,14.1,14.1,0,0,0,5.38-10.92q.27-6.33-3.79-13.44a29,29,0,0,0-2.69-4,20.51,20.51,0,0,0-10-7.18A14.69,14.69,0,0,0,163.6,336Z"></path><path class="cls-1" d="M285.4,341.8q-3.82,1.9-10.84-.55l-29.73-10.81,8.72,16.85a9.61,9.61,0,0,1-2.67,12.09,10.62,10.62,0,0,1-7.33,2.38,8.77,8.77,0,0,1-6.64-3.5,9.51,9.51,0,0,1-1.1-1.8l-26.33-51.18a9.13,9.13,0,0,1-1-6.54,9.45,9.45,0,0,1,3.51-5.56,10.54,10.54,0,0,1,7.39-2.43,8.84,8.84,0,0,1,6.58,3.55,12.61,12.61,0,0,1,1.2,1.84l7,13.54,8.05-28.36a10.62,10.62,0,0,1,3.51-5.68,9.62,9.62,0,0,1,7.21-2.06,9.13,9.13,0,0,1,6.54,3.54,8.38,8.38,0,0,1,1,1.61q2,3.76-.52,11.2l-7.45,22.74,29.12,10.05q5.6,1.9,7.65,4.5a7,7,0,0,1,.92,1.56q3.54,6.69-2.72,11.63A18.22,18.22,0,0,1,285.4,341.8Z"></path><path class="cls-1" d="M337.23,317.59a32.79,32.79,0,0,1-22.46,2.93,30.13,30.13,0,0,1-18.48-12.21,36,36,0,0,1-2.7-4.42l-16-31.83a9.84,9.84,0,0,1-1.05-7.09,9.58,9.58,0,0,1,3.86-5.59,10.34,10.34,0,0,1,7.43-2,9.11,9.11,0,0,1,6.53,4.05,7.93,7.93,0,0,1,.94,1.72l15.73,31.05a23.4,23.4,0,0,0,1.51,2.45,13.12,13.12,0,0,0,8.32,5.53,12,12,0,0,0,9.59-2.29,11.73,11.73,0,0,0,4.85-7.67,15,15,0,0,0-1.4-9.54l-15.63-31a10.38,10.38,0,0,1-1.07-7.2A9.38,9.38,0,0,1,321,238.9a10.16,10.16,0,0,1,7.51-2A9.37,9.37,0,0,1,335,241c.38.53.74,1.09,1.09,1.68l16,31.83a29.93,29.93,0,0,1,2.35,22.06,32.39,32.39,0,0,1-12.72,18.28A37.09,37.09,0,0,1,337.23,317.59Z"></path><path class="cls-1" d="M413.75,279l-22.2,11.28a9.75,9.75,0,0,1-8,.72,11,11,0,0,1-6-5.64l-25.31-49.52a9.62,9.62,0,0,1,4.3-13.59,9.52,9.52,0,0,1,7.61-.82,10.09,10.09,0,0,1,6,5.37l21.52,42.36,13.53-6.9a9.44,9.44,0,0,1,7.17-.92,9.08,9.08,0,0,1,5.19,4,9.47,9.47,0,0,1,1.36,7.23A9.15,9.15,0,0,1,413.75,279Z"></path><path class="cls-1" d="M483.77,245.85q-5.2,2.79-9.82-.14a101.34,101.34,0,0,1-7.62-7.07L445,249.91q1.61,8.68,1.46,10.17a8.9,8.9,0,0,1-5.22,8.23,10.06,10.06,0,0,1-7.41.81,8.75,8.75,0,0,1-5.73-4.67,10.37,10.37,0,0,1-1.16-3.94l-7.68-57.33a16.54,16.54,0,0,1,1.18-8.58,12.35,12.35,0,0,1,5.78-6.22q8.29-4.37,16.07,2.66l42.58,38.83a16.34,16.34,0,0,1,3,3.52,8.69,8.69,0,0,1,.57,7.13A9.34,9.34,0,0,1,483.77,245.85Zm-46.19-35.27q1.65,6.4,4,20l10.69-5.68Z"></path><path class="cls-1" d="M797.87,343.21a79.64,79.64,0,0,1-31.24-29.53q-11.29-18.82-11.29-42.31t11.29-42.3a79.64,79.64,0,0,1,31.24-29.53q19.95-10.71,44.81-10.72t44.7,10.72a80.59,80.59,0,0,1,31.24,29.53q11.4,18.81,11.4,42.3t-11.4,42.31a80.59,80.59,0,0,1-31.24,29.53q-19.85,10.73-44.7,10.72T797.87,343.21ZM868.22,316a46.79,46.79,0,0,0,17.91-18.13,57.09,57.09,0,0,0,0-52.91,46.72,46.72,0,0,0-17.91-18.13,53.43,53.43,0,0,0-51.08,0,46.63,46.63,0,0,0-17.9,18.13,57.09,57.09,0,0,0,0,52.91A46.7,46.7,0,0,0,817.14,316a53.43,53.43,0,0,0,51.08,0Z"></path><path class="cls-1" d="M1016,288.48l-21.44,22.35v40.36H957.84V191.56h36.72v74.57l70.69-74.57h41l-66.13,71.15,70,88.48h-43.1Z"></path><path class="cls-1" d="M1142,335q-19-18.93-19-54.05V191.56h36.94v88q0,42.89,35.58,42.88,17.33,0,26.45-10.38t9.12-32.5v-88h36.49V281q0,35.13-19,54.05t-53.25,18.93Q1161,353.93,1142,335Z"></path><path class="cls-1" d="M1304,191.56h37V321.09h80v30.1H1304Z"></path><path class="cls-1" d="M1548.25,317h-74.12L1460,351.19h-37.85l71.15-159.63h36.48l71.38,159.63h-38.76Zm-11.63-28.05-25.32-61.11L1486,288.93Z"></path><path class="cls-1" d="M1790.2,268.87H1824v64.76a96.28,96.28,0,0,1-30.1,15.05,116.86,116.86,0,0,1-34.44,5.25q-24.86,0-44.7-10.61a78.93,78.93,0,0,1-31.12-29.41q-11.29-18.82-11.29-42.54t11.29-42.53a78.5,78.5,0,0,1,31.35-29.41q20.07-10.6,45.15-10.61,21,0,38.09,7.07a75.52,75.52,0,0,1,28.73,20.53l-23.72,21.89q-17.1-18-41.27-18-15.29,0-27.14,6.39a45.81,45.81,0,0,0-18.47,18q-6.61,11.64-6.61,26.68a52.57,52.57,0,0,0,6.61,26.46A46.86,46.86,0,0,0,1734.67,316a54.43,54.43,0,0,0,26.79,6.5,59.83,59.83,0,0,0,28.74-6.85Z"></path><path class="cls-1" d="M1959.86,351.19l-30.79-44.47h-34v44.47h-36.95V191.56h69.1q21.21,0,36.83,7.07t24.06,20.07q8.43,13,8.44,30.78T1988,280.15q-8.55,12.89-24.28,19.73l35.8,51.31Zm-9.35-122.35q-8.67-7.17-25.31-7.18h-30.1V277.3h30.1q16.63,0,25.31-7.29t8.67-20.53Q1959.18,236,1950.51,228.84Z"></path><path class="cls-1" d="M2058.26,343.21A79.5,79.5,0,0,1,2027,313.68q-11.3-18.82-11.29-42.31t11.29-42.3a79.5,79.5,0,0,1,31.24-29.53q19.95-10.71,44.81-10.72t44.7,10.72A80.72,80.72,0,0,1,2179,229.07q11.4,18.81,11.4,42.3T2179,313.68a80.72,80.72,0,0,1-31.24,29.53q-19.84,10.73-44.7,10.72T2058.26,343.21ZM2128.61,316a46.7,46.7,0,0,0,17.9-18.13,57.09,57.09,0,0,0,0-52.91,46.63,46.63,0,0,0-17.9-18.13,53.43,53.43,0,0,0-51.08,0,46.56,46.56,0,0,0-17.9,18.13,57.09,57.09,0,0,0,0,52.91,46.63,46.63,0,0,0,17.9,18.13,53.43,53.43,0,0,0,51.08,0Z"></path><path class="cls-1" d="M2235.9,335q-19-18.93-19-54.05V191.56h36.95v88q0,42.89,35.57,42.88,17.32,0,26.45-10.38t9.12-32.5v-88h36.49V281q0,35.13-19,54.05t-53.25,18.93Q2255,353.93,2235.9,335Z"></path><path class="cls-1" d="M2503.85,198.63q15.63,7.06,24.06,20.07t8.44,30.78q0,17.57-8.44,30.67t-24.06,20.07q-15.61,7-36.82,7h-32.16v44h-36.94V191.56H2467Q2488.22,191.56,2503.85,198.63Zm-13.56,71.26q8.65-7.18,8.66-20.41,0-13.46-8.66-20.64T2465,221.66h-30.1v55.42H2465Q2481.62,277.08,2490.29,269.89Z"></path></g></g></svg>